<mxfile host="app.diagrams.net" modified="2023-03-26T19:01:22.795Z" agent="Mozilla/5.0 (Windows NT 10.0; Win64; x64) AppleWebKit/537.36 (KHTML, like Gecko) Chrome/111.0.0.0 Safari/537.36" etag="MlgvSpBOw0nkn3Hy0Ajp" version="21.1.1" type="device">
  <diagram name="Page-1" id="JCEGxdFOgvOAtDUVBZYm">
    <mxGraphModel dx="630" dy="703" grid="1" gridSize="10" guides="1" tooltips="1" connect="1" arrows="1" fold="1" page="1" pageScale="1" pageWidth="850" pageHeight="1100" math="0" shadow="0">
      <root>
        <mxCell id="0" />
        <mxCell id="1" parent="0" />
        <mxCell id="HDsGMQWWcjxy8k_yasPS-3" value="Start&lt;br&gt;&lt;b&gt;/api/asset&lt;/b&gt;" style="strokeWidth=2;html=1;shape=mxgraph.flowchart.start_2;whiteSpace=wrap;fontSize=16;" parent="1" vertex="1">
          <mxGeometry x="357" y="158" width="123" height="100" as="geometry" />
        </mxCell>
        <mxCell id="HDsGMQWWcjxy8k_yasPS-5" value="&lt;b&gt;File Upload API&lt;/b&gt;" style="text;html=1;strokeColor=none;fillColor=none;align=center;verticalAlign=middle;whiteSpace=wrap;rounded=0;fontSize=16;" parent="1" vertex="1">
          <mxGeometry x="325" y="60" width="180" height="30" as="geometry" />
        </mxCell>
        <mxCell id="eNhmvxWT9mpu9_6BMVp0-1" value="&lt;b&gt;is &lt;br&gt;authorized?&lt;/b&gt;" style="rhombus;whiteSpace=wrap;html=1;" parent="1" vertex="1">
          <mxGeometry x="359" y="328" width="117.5" height="90" as="geometry" />
        </mxCell>
        <mxCell id="eNhmvxWT9mpu9_6BMVp0-2" value="&lt;b&gt;User input&lt;/b&gt;&lt;br&gt;Binary input file&lt;br&gt;file_name: string&lt;br&gt;file: string" style="shape=parallelogram;html=1;strokeWidth=2;perimeter=parallelogramPerimeter;whiteSpace=wrap;rounded=1;arcSize=12;size=0.23;" parent="1" vertex="1">
          <mxGeometry x="329.75" y="484" width="177.5" height="70" as="geometry" />
        </mxCell>
        <mxCell id="eNhmvxWT9mpu9_6BMVp0-3" value="" style="endArrow=classic;html=1;rounded=0;exitX=0.5;exitY=1;exitDx=0;exitDy=0;exitPerimeter=0;entryX=0.5;entryY=0;entryDx=0;entryDy=0;" parent="1" source="HDsGMQWWcjxy8k_yasPS-3" target="eNhmvxWT9mpu9_6BMVp0-1" edge="1">
          <mxGeometry width="50" height="50" relative="1" as="geometry">
            <mxPoint x="417.5" y="258" as="sourcePoint" />
            <mxPoint x="401.5" y="468" as="targetPoint" />
          </mxGeometry>
        </mxCell>
        <mxCell id="eNhmvxWT9mpu9_6BMVp0-4" value="" style="endArrow=classic;html=1;rounded=0;exitX=0.5;exitY=1;exitDx=0;exitDy=0;entryX=0.5;entryY=0;entryDx=0;entryDy=0;" parent="1" source="eNhmvxWT9mpu9_6BMVp0-1" target="eNhmvxWT9mpu9_6BMVp0-2" edge="1">
          <mxGeometry width="50" height="50" relative="1" as="geometry">
            <mxPoint x="351.5" y="518" as="sourcePoint" />
            <mxPoint x="401.5" y="468" as="targetPoint" />
          </mxGeometry>
        </mxCell>
        <mxCell id="eNhmvxWT9mpu9_6BMVp0-5" value="Success" style="text;html=1;strokeColor=none;fillColor=none;align=center;verticalAlign=middle;whiteSpace=wrap;rounded=0;" parent="1" vertex="1">
          <mxGeometry x="416.5" y="428" width="60" height="30" as="geometry" />
        </mxCell>
        <mxCell id="eNhmvxWT9mpu9_6BMVp0-6" value="Request with JWT Access Token &amp;amp; Binary file" style="text;html=1;strokeColor=none;fillColor=none;align=center;verticalAlign=middle;whiteSpace=wrap;rounded=0;" parent="1" vertex="1">
          <mxGeometry x="320" y="278" width="99.75" height="30" as="geometry" />
        </mxCell>
        <mxCell id="eNhmvxWT9mpu9_6BMVp0-7" value="&lt;b&gt;Response code: 401&lt;/b&gt;&lt;br&gt;Unauthorized user" style="rounded=1;whiteSpace=wrap;html=1;absoluteArcSize=1;arcSize=14;strokeWidth=2;" parent="1" vertex="1">
          <mxGeometry x="667.5" y="338" width="122.5" height="70" as="geometry" />
        </mxCell>
        <mxCell id="eNhmvxWT9mpu9_6BMVp0-8" value="" style="endArrow=classic;html=1;rounded=0;entryX=0;entryY=0.5;entryDx=0;entryDy=0;exitX=1;exitY=0.5;exitDx=0;exitDy=0;" parent="1" source="eNhmvxWT9mpu9_6BMVp0-1" target="eNhmvxWT9mpu9_6BMVp0-7" edge="1">
          <mxGeometry width="50" height="50" relative="1" as="geometry">
            <mxPoint x="490" y="380" as="sourcePoint" />
            <mxPoint x="401.5" y="468" as="targetPoint" />
          </mxGeometry>
        </mxCell>
        <mxCell id="eNhmvxWT9mpu9_6BMVp0-9" value="Credentials&lt;br&gt;Not valid" style="text;html=1;strokeColor=none;fillColor=none;align=center;verticalAlign=middle;whiteSpace=wrap;rounded=0;" parent="1" vertex="1">
          <mxGeometry x="521.5" y="338" width="60" height="30" as="geometry" />
        </mxCell>
        <mxCell id="eNhmvxWT9mpu9_6BMVp0-10" value="&lt;b&gt;Query&lt;/b&gt;&lt;br&gt;Query the id of the address book with respect to the user GUID" style="rounded=1;whiteSpace=wrap;html=1;absoluteArcSize=1;arcSize=14;strokeWidth=2;" parent="1" vertex="1">
          <mxGeometry x="325.25" y="612" width="187.75" height="70" as="geometry" />
        </mxCell>
        <mxCell id="eNhmvxWT9mpu9_6BMVp0-11" value="&lt;b&gt;Response code: 200&lt;/b&gt;&lt;br&gt;JSON with Id, will be used to&lt;br&gt;&amp;nbsp;map with account&lt;br&gt;id: GUID" style="rounded=1;whiteSpace=wrap;html=1;absoluteArcSize=1;arcSize=14;strokeWidth=2;" parent="1" vertex="1">
          <mxGeometry x="320" y="734" width="200" height="70" as="geometry" />
        </mxCell>
        <mxCell id="eNhmvxWT9mpu9_6BMVp0-12" value="&lt;b&gt;Stop&lt;/b&gt;" style="strokeWidth=2;html=1;shape=mxgraph.flowchart.terminator;whiteSpace=wrap;" parent="1" vertex="1">
          <mxGeometry x="368.75" y="919" width="100" height="60" as="geometry" />
        </mxCell>
        <mxCell id="eNhmvxWT9mpu9_6BMVp0-14" value="&lt;b&gt;Response code: 500&lt;/b&gt;&lt;br&gt;Internal server error" style="rounded=1;whiteSpace=wrap;html=1;absoluteArcSize=1;arcSize=14;strokeWidth=2;" parent="1" vertex="1">
          <mxGeometry x="59" y="339" width="131" height="70" as="geometry" />
        </mxCell>
        <mxCell id="eNhmvxWT9mpu9_6BMVp0-15" value="" style="endArrow=classic;html=1;rounded=0;exitX=0;exitY=0.5;exitDx=0;exitDy=0;entryX=1;entryY=0.5;entryDx=0;entryDy=0;" parent="1" target="eNhmvxWT9mpu9_6BMVp0-14" edge="1">
          <mxGeometry width="50" height="50" relative="1" as="geometry">
            <mxPoint x="359.0000000000002" y="372" as="sourcePoint" />
            <mxPoint x="220" y="390" as="targetPoint" />
          </mxGeometry>
        </mxCell>
        <mxCell id="eNhmvxWT9mpu9_6BMVp0-16" value="Internal error" style="text;html=1;strokeColor=none;fillColor=none;align=center;verticalAlign=middle;whiteSpace=wrap;rounded=0;" parent="1" vertex="1">
          <mxGeometry x="240" y="338" width="60" height="30" as="geometry" />
        </mxCell>
        <mxCell id="eNhmvxWT9mpu9_6BMVp0-17" value="" style="endArrow=classic;html=1;rounded=0;exitX=0.5;exitY=1;exitDx=0;exitDy=0;entryX=0.5;entryY=0;entryDx=0;entryDy=0;" parent="1" source="eNhmvxWT9mpu9_6BMVp0-2" target="eNhmvxWT9mpu9_6BMVp0-10" edge="1">
          <mxGeometry width="50" height="50" relative="1" as="geometry">
            <mxPoint x="390" y="690" as="sourcePoint" />
            <mxPoint x="440" y="640" as="targetPoint" />
          </mxGeometry>
        </mxCell>
        <mxCell id="eNhmvxWT9mpu9_6BMVp0-18" value="" style="endArrow=classic;html=1;rounded=0;exitX=0.5;exitY=1;exitDx=0;exitDy=0;entryX=0.5;entryY=0;entryDx=0;entryDy=0;" parent="1" source="eNhmvxWT9mpu9_6BMVp0-10" target="eNhmvxWT9mpu9_6BMVp0-11" edge="1">
          <mxGeometry width="50" height="50" relative="1" as="geometry">
            <mxPoint x="390" y="690" as="sourcePoint" />
            <mxPoint x="440" y="640" as="targetPoint" />
          </mxGeometry>
        </mxCell>
        <mxCell id="eNhmvxWT9mpu9_6BMVp0-19" value="" style="endArrow=classic;html=1;rounded=0;exitX=0.5;exitY=1;exitDx=0;exitDy=0;entryX=0.5;entryY=0;entryDx=0;entryDy=0;entryPerimeter=0;" parent="1" source="eNhmvxWT9mpu9_6BMVp0-11" target="eNhmvxWT9mpu9_6BMVp0-12" edge="1">
          <mxGeometry width="50" height="50" relative="1" as="geometry">
            <mxPoint x="390" y="690" as="sourcePoint" />
            <mxPoint x="450" y="880" as="targetPoint" />
          </mxGeometry>
        </mxCell>
        <mxCell id="eNhmvxWT9mpu9_6BMVp0-20" value="" style="endArrow=classic;html=1;rounded=0;exitX=0.5;exitY=1;exitDx=0;exitDy=0;entryX=0;entryY=0.5;entryDx=0;entryDy=0;entryPerimeter=0;edgeStyle=orthogonalEdgeStyle;" parent="1" source="eNhmvxWT9mpu9_6BMVp0-14" target="eNhmvxWT9mpu9_6BMVp0-12" edge="1">
          <mxGeometry width="50" height="50" relative="1" as="geometry">
            <mxPoint x="390" y="690" as="sourcePoint" />
            <mxPoint x="440" y="640" as="targetPoint" />
          </mxGeometry>
        </mxCell>
        <mxCell id="eNhmvxWT9mpu9_6BMVp0-21" value="" style="endArrow=classic;html=1;rounded=0;exitX=0.5;exitY=1;exitDx=0;exitDy=0;entryX=1;entryY=0.5;entryDx=0;entryDy=0;entryPerimeter=0;edgeStyle=orthogonalEdgeStyle;" parent="1" source="eNhmvxWT9mpu9_6BMVp0-7" target="eNhmvxWT9mpu9_6BMVp0-12" edge="1">
          <mxGeometry width="50" height="50" relative="1" as="geometry">
            <mxPoint x="390" y="690" as="sourcePoint" />
            <mxPoint x="440" y="640" as="targetPoint" />
          </mxGeometry>
        </mxCell>
        <mxCell id="eNhmvxWT9mpu9_6BMVp0-22" value="POST" style="text;html=1;strokeColor=none;fillColor=none;align=center;verticalAlign=middle;whiteSpace=wrap;rounded=0;" parent="1" vertex="1">
          <mxGeometry x="425" y="278" width="60" height="30" as="geometry" />
        </mxCell>
      </root>
    </mxGraphModel>
  </diagram>
</mxfile>
